<svg width="32" height="32" viewBox="0 0 32 32" fill="none" xmlns="http://www.w3.org/2000/svg">
<path d="M23.8572 8.85721H25.2858M7.42864 1.71436H24.5715C27.7274 1.71436 30.2858 4.27273 30.2858 7.42864V24.5715C30.2858 27.7274 27.7274 30.2858 24.5715 30.2858H7.42864C4.27273 30.2858 1.71436 27.7274 1.71436 24.5715V7.42864C1.71436 4.27273 4.27273 1.71436 7.42864 1.71436ZM16.0001 21.7144C12.8442 21.7144 10.2858 19.156 10.2858 16.0001C10.2858 12.8442 12.8442 10.2858 16.0001 10.2858C19.156 10.2858 21.7144 12.8442 21.7144 16.0001C21.7144 19.156 19.156 21.7144 16.0001 21.7144Z" stroke="black" stroke-width="2"/>
</svg>
